<?xml version="1.0" encoding="UTF-8" standalone="no"?>
<!-- Created with Inkscape (http://www.inkscape.org/) -->

<svg
   width="6.2858505mm"
   height="8.7973957mm"
   viewBox="0 0 6.2858505 8.7973957"
   version="1.1"
   id="svg1885"
   inkscape:version="1.1.2 (0a00cf5339, 2022-02-04)"
   sodipodi:docname="clic_gauche.svg"
   xmlns:inkscape="http://www.inkscape.org/namespaces/inkscape"
   xmlns:sodipodi="http://sodipodi.sourceforge.net/DTD/sodipodi-0.dtd"
   xmlns:xlink="http://www.w3.org/1999/xlink"
   xmlns="http://www.w3.org/2000/svg"
   xmlns:svg="http://www.w3.org/2000/svg">
  <sodipodi:namedview
     id="namedview1887"
     pagecolor="#ffffff"
     bordercolor="#666666"
     borderopacity="1.0"
     inkscape:pageshadow="2"
     inkscape:pageopacity="0.0"
     inkscape:pagecheckerboard="0"
     inkscape:document-units="mm"
     showgrid="false"
     fit-margin-top="0"
     fit-margin-left="0"
     fit-margin-right="0"
     fit-margin-bottom="0"
     inkscape:zoom="6.340594"
     inkscape:cx="33.277639"
     inkscape:cy="31.306215"
     inkscape:window-width="1850"
     inkscape:window-height="1016"
     inkscape:window-x="1990"
     inkscape:window-y="269"
     inkscape:window-maximized="1"
     inkscape:current-layer="layer1" />
  <defs
     id="defs1882">
    <radialGradient
       id="mouse_gradient"
       cx="19.296726"
       cy="13.266499"
       r="13.266499"
       fx="19.296726"
       fy="19.89975"
       gradientTransform="scale(0.8291562,1.2060454)"
       gradientUnits="userSpaceOnUse">
      <stop
         offset="0"
         stop-color="#fff"
         id="stop274" />
      <stop
         offset="1"
         stop-color="#ccc"
         id="stop276" />
    </radialGradient>
    <radialGradient
       id="radialGradient1959"
       cx="0.5"
       cy="0.5"
       r="0.5"
       fx="0.5"
       fy="0.75">
      <stop
         offset="0"
         stop-color="#fff"
         id="stop1955" />
      <stop
         offset="1"
         stop-color="#ccc"
         id="stop1957" />
    </radialGradient>
    <radialGradient
       id="mouse_specular_gradient"
       cx="0.5"
       cy="0.25"
       r="1"
       fx="0.5"
       fy="-0.0625"
       gradientTransform="matrix(0.333,0,0,1,0.1665,0)">
      <stop
         offset="0"
         stop-color="#ffffff"
         stop-opacity="1"
         id="stop279" />
      <stop
         offset="1"
         stop-color="#ffffff"
         stop-opacity="0"
         id="stop281" />
    </radialGradient>
    <clipPath
       id="mouse_clip"
       clipPathUnits="userSpaceOnUse">
      <path
         id="use294"
         d="m 16,0 q 8,0 9,4 4,16 0,24 -2,4 -9,4 Q 9,32 7,28 3,20 7,4 8,0 16,0 Z" />
    </clipPath>
    <clipPath
       id="clipPath1968"
       clipPathUnits="userSpaceOnUse">
      <path
         id="use1966"
         d="m 16,0 q 8,0 9,4 4,16 0,24 -2,4 -9,4 Q 9,32 7,28 3,20 7,4 8,0 16,0 Z" />
    </clipPath>
    <clipPath
       id="clipPath1972"
       clipPathUnits="userSpaceOnUse">
      <path
         id="use1970"
         d="m 16,0 q 8,0 9,4 4,16 0,24 -2,4 -9,4 Q 9,32 7,28 3,20 7,4 8,0 16,0 Z" />
    </clipPath>
    <clipPath
       id="clipPath1976"
       clipPathUnits="userSpaceOnUse">
      <path
         id="use1974"
         d="m 16,0 q 8,0 9,4 4,16 0,24 -2,4 -9,4 Q 9,32 7,28 3,20 7,4 8,0 16,0 Z" />
    </clipPath>
    <clipPath
       id="clipPath1980"
       clipPathUnits="userSpaceOnUse">
      <path
         id="use1978"
         d="m 16,0 q 8,0 9,4 4,16 0,24 -2,4 -9,4 Q 9,32 7,28 3,20 7,4 8,0 16,0 Z" />
    </clipPath>
    <radialGradient
       id="radialGradient1986"
       cx="0.5"
       cy="0.5"
       r="0.5"
       fx="0.5"
       fy="0.75">
      <stop
         offset="0"
         stop-color="#fff"
         id="stop1982" />
      <stop
         offset="1"
         stop-color="#ccc"
         id="stop1984" />
    </radialGradient>
    <radialGradient
       id="radialGradient1992"
       cx="0.5"
       cy="0.5"
       r="0.5"
       fx="0.5"
       fy="0.75">
      <stop
         offset="0"
         stop-color="#fff"
         id="stop1988" />
      <stop
         offset="1"
         stop-color="#ccc"
         id="stop1990" />
    </radialGradient>
    <radialGradient
       id="radialGradient1998"
       cx="0.5"
       cy="0.25"
       r="1"
       fx="0.5"
       fy="-0.0625"
       gradientTransform="matrix(0.333,0,0,1,0.1665,0)">
      <stop
         offset="0"
         stop-color="#ffffff"
         stop-opacity="1"
         id="stop1994" />
      <stop
         offset="1"
         stop-color="#ffffff"
         stop-opacity="0"
         id="stop1996" />
    </radialGradient>
    <clipPath
       id="clipPath2002"
       clipPathUnits="userSpaceOnUse">
      <path
         id="use2000"
         d="m 16,0 q 8,0 9,4 4,16 0,24 -2,4 -9,4 Q 9,32 7,28 3,20 7,4 8,0 16,0 Z" />
    </clipPath>
    <clipPath
       id="clipPath2006"
       clipPathUnits="userSpaceOnUse">
      <path
         id="use2004"
         d="m 16,0 q 8,0 9,4 4,16 0,24 -2,4 -9,4 Q 9,32 7,28 3,20 7,4 8,0 16,0 Z" />
    </clipPath>
    <clipPath
       id="clipPath2010"
       clipPathUnits="userSpaceOnUse">
      <path
         id="use2008"
         d="m 16,0 q 8,0 9,4 4,16 0,24 -2,4 -9,4 Q 9,32 7,28 3,20 7,4 8,0 16,0 Z" />
    </clipPath>
    <linearGradient
       id="dpad_press_gradient"
       x1="6.6666665"
       y1="1.5"
       x2="6.6666665"
       y2="13.5"
       gradientTransform="scale(0.75,1.3333333)"
       gradientUnits="userSpaceOnUse">
      <stop
         offset="0.5"
         stop-color="#0094ff"
         stop-opacity="0.75"
         id="stop30"
         style="stop-color:#ff1100;stop-opacity:0.74901962" />
      <stop
         offset="1.0"
         stop-color="#0094ff"
         stop-opacity="0"
         id="stop32"
         style="stop-color:#ff0000;stop-opacity:0" />
    </linearGradient>
    <clipPath
       id="clipPath2023"
       clipPathUnits="userSpaceOnUse">
      <path
         id="use2021"
         d="m 16,0 q 8,0 9,4 4,16 0,24 -2,4 -9,4 Q 9,32 7,28 3,20 7,4 8,0 16,0 Z" />
    </clipPath>
    <radialGradient
       id="radialGradient2029"
       cx="0.5"
       cy="0.5"
       r="0.5"
       fx="0.5"
       fy="0.75">
      <stop
         offset="0"
         stop-color="#fff"
         id="stop2025" />
      <stop
         offset="1"
         stop-color="#ccc"
         id="stop2027" />
    </radialGradient>
    <radialGradient
       id="radialGradient2035"
       cx="0.5"
       cy="0.5"
       r="0.5"
       fx="0.5"
       fy="0.75">
      <stop
         offset="0"
         stop-color="#fff"
         id="stop2031" />
      <stop
         offset="1"
         stop-color="#ccc"
         id="stop2033" />
    </radialGradient>
    <radialGradient
       id="radialGradient2041"
       cx="0.5"
       cy="0.25"
       r="1"
       fx="0.5"
       fy="-0.0625"
       gradientTransform="matrix(0.333,0,0,1,0.1665,0)">
      <stop
         offset="0"
         stop-color="#ffffff"
         stop-opacity="1"
         id="stop2037" />
      <stop
         offset="1"
         stop-color="#ffffff"
         stop-opacity="0"
         id="stop2039" />
    </radialGradient>
    <clipPath
       id="clipPath2045"
       clipPathUnits="userSpaceOnUse">
      <path
         id="use2043"
         d="m 16,0 q 8,0 9,4 4,16 0,24 -2,4 -9,4 Q 9,32 7,28 3,20 7,4 8,0 16,0 Z" />
    </clipPath>
    <clipPath
       id="clipPath2049"
       clipPathUnits="userSpaceOnUse">
      <path
         id="use2047"
         d="m 16,0 q 8,0 9,4 4,16 0,24 -2,4 -9,4 Q 9,32 7,28 3,20 7,4 8,0 16,0 Z" />
    </clipPath>
    <clipPath
       id="clipPath2053"
       clipPathUnits="userSpaceOnUse">
      <path
         id="use2051"
         d="m 16,0 q 8,0 9,4 4,16 0,24 -2,4 -9,4 Q 9,32 7,28 3,20 7,4 8,0 16,0 Z" />
    </clipPath>
    <clipPath
       id="clipPath2069"
       clipPathUnits="userSpaceOnUse">
      <path
         id="use2067"
         d="m 16,0 q 8,0 9,4 4,16 0,24 -2,4 -9,4 Q 9,32 7,28 3,20 7,4 8,0 16,0 Z" />
    </clipPath>
    <radialGradient
       inkscape:collect="always"
       xlink:href="#mouse_specular_gradient"
       id="radialGradient2381"
       gradientTransform="scale(0.8291562,1.2060454)"
       cx="19.296726"
       cy="6.6332498"
       fx="19.296726"
       fy="-1.6583124"
       r="26.532997"
       gradientUnits="userSpaceOnUse" />
  </defs>
  <g
     inkscape:label="Calque 1"
     inkscape:groupmode="layer"
     id="layer1"
     transform="translate(-85.886695,-102.5776)">
    <g
       id="use640"
       transform="matrix(0.26458333,0,0,0.26458333,85.159756,102.11458)">
      <g
         id="use2361"
         transform="translate(-2,2)">
        <!-- DEBUG: rect x="-5" y="-5" width="50" height="50" fill="lime"/ -->
        <!-- Shadow. -->
        <path
           id="use2367"
           d="m 17,0.5 q 8,0 9,4 4,16 0,24 -2,4 -9,4 -7,0 -9,-4 -4,-8 0,-24 1,-4 9,-4 z"
           style="opacity:0.887;fill:#000000;stroke:#000000;stroke-width:1" />
        <!-- Base. -->
        <path
           id="use2369"
           d="m 16,0 q 8,0 9,4 4,16 0,24 -2,4 -9,4 Q 9,32 7,28 3,20 7,4 8,0 16,0 Z"
           style="fill:url(#mouse_gradient);stroke:none" />
        <!-- Specular lighting. -->
        <rect
           x="3"
           y="0"
           width="26"
           height="32"
           fill="url(#mouse_specular_gradient)"
           clip-path="url(#mouse_clip)"
           id="rect2371"
           style="fill:url(#radialGradient2381)" />
        <!-- Buttons. -->
        <path
           id="use2373"
           d="m 16,0 v 2 q -2,0 -2,6 0,6 2,6 v 2 Q 7,16 7,12 V 0 Z"
           clip-path="url(#mouse_clip)"
           style="fill:none;stroke:#8a8993;stroke-width:0.25" />
        <path
           id="use2375"
           d="m 16,0 v 2 q -2,0 -2,6 0,6 2,6 v 2 Q 7,16 7,12 V 0 Z"
           clip-path="url(#mouse_clip)"
           style="fill:none;stroke:#8a8993;stroke-width:0.25"
           transform="matrix(-1,0,0,1,32,0)" />
        <!-- The dark outline. -->
        <path
           id="use2377"
           d="m 16,0 q 8,0 9,4 4,16 0,24 -2,4 -9,4 Q 9,32 7,28 3,20 7,4 8,0 16,0 Z"
           style="fill:none;stroke:#8a8993;stroke-width:0.5" />
      </g>
      <path
         id="use2363"
         d="m 16,0 v 2 q -2,0 -2,6 0,6 2,6 v 2 Q 7,16 7,12 V 0 Z"
         clip-path="url(#mouse_clip)"
         style="fill:url(#dpad_press_gradient);stroke:none"
         transform="translate(-2,2)" />
    </g>
  </g>
</svg>
