<?xml version="1.0" encoding="UTF-8" standalone="no"?>
<!-- Generator: Adobe Illustrator 24.3.0, SVG Export Plug-In . SVG Version: 6.00 Build 0)  -->

<svg
   version="1.0"
   id="katman_1"
   x="0px"
   y="0px"
   viewBox="0 0 841.89 595.28"
   style="enable-background:new 0 0 841.89 595.28;"
   xml:space="preserve"
   sodipodi:docname="icone_attention.svg"
   inkscape:version="1.1.2 (0a00cf5339, 2022-02-04)"
   xmlns:inkscape="http://www.inkscape.org/namespaces/inkscape"
   xmlns:sodipodi="http://sodipodi.sourceforge.net/DTD/sodipodi-0.dtd"
   xmlns="http://www.w3.org/2000/svg"
   xmlns:svg="http://www.w3.org/2000/svg"><defs
   id="defs9" /><sodipodi:namedview
   id="namedview7"
   pagecolor="#ffffff"
   bordercolor="#666666"
   borderopacity="1.0"
   inkscape:pageshadow="2"
   inkscape:pageopacity="0.0"
   inkscape:pagecheckerboard="0"
   showgrid="false"
   inkscape:zoom="1.3573444"
   inkscape:cx="421.04274"
   inkscape:cy="298.00838"
   inkscape:window-width="1850"
   inkscape:window-height="1016"
   inkscape:window-x="0"
   inkscape:window-y="0"
   inkscape:window-maximized="1"
   inkscape:current-layer="katman_1" />
<style
   type="text/css"
   id="style2">
	.st0{fill:#FF5B19;}
</style>
<path
   class="st0"
   d="M688.83,499.36c-1.82,10.15-7.09,19.35-14.92,26.05c-7.94,7.1-18.26,10.93-28.91,10.74h-447.5  c-10.65,0.2-20.98-3.63-28.91-10.74c-7.83-6.7-13.1-15.91-14.92-26.05c-1.86-10.33-0.22-20.99,4.64-30.3L382.08,81.23  c5.1-9.43,13.61-16.55,23.8-19.89c9.98-3.38,20.79-3.38,30.76,0c10.16,3.36,18.65,10.48,23.73,19.89l223.75,387.83  C689.01,478.36,690.67,489.02,688.83,499.36z M390.96,401.44c-16.66,16.74-16.6,43.81,0.14,60.47c16.74,16.66,43.81,16.6,60.47-0.14  c16.66-16.74,16.6-43.81-0.14-60.47c-8.02-7.98-18.87-12.46-30.18-12.45C409.86,388.67,398.89,393.23,390.96,401.44z M387.65,361.66  c0.1,2.7,1.3,5.24,3.31,7.03c2.05,2.15,4.92,3.33,7.89,3.25h44.75c2.99,0.06,5.87-1.11,7.96-3.25c2.01-1.79,3.18-4.34,3.25-7.03  l7.43-126.76c0.2-3.3-0.98-6.54-3.25-8.95c-2.06-2.13-4.92-3.31-7.89-3.25h-59.67c-2.99-0.06-5.87,1.11-7.96,3.25  c-2.25,2.39-3.43,5.6-3.25,8.88L387.65,361.66z"
   id="path4" />
</svg>
