<?xml version="1.0" encoding="UTF-8" standalone="no"?>
<svg
   version="1"
   viewBox="0 0 59.0681 59.0681"
   enable-background="new 0 0 48 48"
   id="svg50"
   sodipodi:docname="calculette.svg"
   width="59.0681"
   height="59.0681"
   inkscape:version="1.2 (1:1.2.1+202207142221+cd75a1ee6d)"
   xmlns:inkscape="http://www.inkscape.org/namespaces/inkscape"
   xmlns:sodipodi="http://sodipodi.sourceforge.net/DTD/sodipodi-0.dtd"
   xmlns:xlink="http://www.w3.org/1999/xlink"
   xmlns="http://www.w3.org/2000/svg"
   xmlns:svg="http://www.w3.org/2000/svg">
  <defs
     id="defs54">
    <linearGradient
       inkscape:collect="always"
       id="linearGradient2524">
      <stop
         style="stop-color:#ffff00;stop-opacity:1;"
         offset="0"
         id="stop2520" />
      <stop
         style="stop-color:#acac00;stop-opacity:1;"
         offset="1"
         id="stop2522" />
    </linearGradient>
    <radialGradient
       inkscape:collect="always"
       xlink:href="#linearGradient2524"
       id="radialGradient2575"
       cx="31.295485"
       cy="17.719069"
       fx="31.295485"
       fy="17.719069"
       r="29.53405"
       gradientUnits="userSpaceOnUse"
       gradientTransform="matrix(1.4657842,0.56276972,-0.37983375,0.98931105,-5.5495701,-17.163094)" />
  </defs>
  <sodipodi:namedview
     id="namedview52"
     pagecolor="#ffffff"
     bordercolor="#666666"
     borderopacity="1.0"
     inkscape:showpageshadow="2"
     inkscape:pageopacity="0.0"
     inkscape:pagecheckerboard="0"
     inkscape:deskcolor="#d1d1d1"
     showgrid="false"
     inkscape:zoom="6.4449837"
     inkscape:cx="49.263119"
     inkscape:cy="33.204118"
     inkscape:window-width="1848"
     inkscape:window-height="1043"
     inkscape:window-x="72"
     inkscape:window-y="0"
     inkscape:window-maximized="1"
     inkscape:current-layer="svg50" />
  <circle
     style="fill:#ffff00;fill-opacity:1;stroke:none;stroke-width:0.533333;stroke-linecap:square;stroke-linejoin:round;stop-color:#000000"
     id="path415"
     cx="29.53405"
     cy="29.53405"
     r="29.03405" />
  <circle
     style="fill:url(#radialGradient2575);fill-opacity:1;stroke:#a2a200;stroke-width:1;stroke-linecap:square;stroke-linejoin:round;stroke-dasharray:none;stroke-opacity:1;stop-color:#000000"
     id="path415-3"
     cx="29.53405"
     cy="29.53405"
     r="29.03405" />
  <g
     id="g413"
     transform="translate(5.53405,5.53405)">
    <path
       fill="#616161"
       d="M 40,16 H 8 v 24 c 0,2.2 1.8,4 4,4 h 24 c 2.2,0 4,-1.8 4,-4 z"
       id="path2" />
    <path
       fill="#424242"
       d="M 36,4 H 12 C 9.8,4 8,5.8 8,8 v 9 H 40 V 8 C 40,5.8 38.2,4 36,4 Z"
       id="path4" />
    <path
       fill="#9ccc65"
       d="M 36,14 H 12 c -0.6,0 -1,-0.4 -1,-1 V 8 c 0,-0.6 0.4,-1 1,-1 h 24 c 0.6,0 1,0.4 1,1 v 5 c 0,0.6 -0.4,1 -1,1 z"
       id="path6" />
    <g
       fill="#33691e"
       id="g12">
      <rect
         x="33"
         y="10"
         width="2"
         height="2"
         id="rect8" />
      <rect
         x="29"
         y="10"
         width="2"
         height="2"
         id="rect10" />
    </g>
    <path
       fill="#ff5252"
       d="m 36,23 h -3 c -0.6,0 -1,-0.4 -1,-1 v -2 c 0,-0.6 0.4,-1 1,-1 h 3 c 0.6,0 1,0.4 1,1 v 2 c 0,0.6 -0.4,1 -1,1 z"
       id="path14" />
    <g
       fill="#e0e0e0"
       id="g40">
      <path
         d="m 15,23 h -3 c -0.6,0 -1,-0.4 -1,-1 v -2 c 0,-0.6 0.4,-1 1,-1 h 3 c 0.6,0 1,0.4 1,1 v 2 c 0,0.6 -0.4,1 -1,1 z"
         id="path16" />
      <path
         d="m 22,23 h -3 c -0.6,0 -1,-0.4 -1,-1 v -2 c 0,-0.6 0.4,-1 1,-1 h 3 c 0.6,0 1,0.4 1,1 v 2 c 0,0.6 -0.4,1 -1,1 z"
         id="path18" />
      <path
         d="m 29,23 h -3 c -0.6,0 -1,-0.4 -1,-1 v -2 c 0,-0.6 0.4,-1 1,-1 h 3 c 0.6,0 1,0.4 1,1 v 2 c 0,0.6 -0.4,1 -1,1 z"
         id="path20" />
      <path
         d="m 15,29 h -3 c -0.6,0 -1,-0.4 -1,-1 v -2 c 0,-0.6 0.4,-1 1,-1 h 3 c 0.6,0 1,0.4 1,1 v 2 c 0,0.6 -0.4,1 -1,1 z"
         id="path22" />
      <path
         d="m 22,29 h -3 c -0.6,0 -1,-0.4 -1,-1 v -2 c 0,-0.6 0.4,-1 1,-1 h 3 c 0.6,0 1,0.4 1,1 v 2 c 0,0.6 -0.4,1 -1,1 z"
         id="path24" />
      <path
         d="m 29,29 h -3 c -0.6,0 -1,-0.4 -1,-1 v -2 c 0,-0.6 0.4,-1 1,-1 h 3 c 0.6,0 1,0.4 1,1 v 2 c 0,0.6 -0.4,1 -1,1 z"
         id="path26" />
      <path
         d="m 15,35 h -3 c -0.6,0 -1,-0.4 -1,-1 v -2 c 0,-0.6 0.4,-1 1,-1 h 3 c 0.6,0 1,0.4 1,1 v 2 c 0,0.6 -0.4,1 -1,1 z"
         id="path28" />
      <path
         d="m 22,35 h -3 c -0.6,0 -1,-0.4 -1,-1 v -2 c 0,-0.6 0.4,-1 1,-1 h 3 c 0.6,0 1,0.4 1,1 v 2 c 0,0.6 -0.4,1 -1,1 z"
         id="path30" />
      <path
         d="m 29,35 h -3 c -0.6,0 -1,-0.4 -1,-1 v -2 c 0,-0.6 0.4,-1 1,-1 h 3 c 0.6,0 1,0.4 1,1 v 2 c 0,0.6 -0.4,1 -1,1 z"
         id="path32" />
      <path
         d="m 15,41 h -3 c -0.6,0 -1,-0.4 -1,-1 v -2 c 0,-0.6 0.4,-1 1,-1 h 3 c 0.6,0 1,0.4 1,1 v 2 c 0,0.6 -0.4,1 -1,1 z"
         id="path34" />
      <path
         d="m 22,41 h -3 c -0.6,0 -1,-0.4 -1,-1 v -2 c 0,-0.6 0.4,-1 1,-1 h 3 c 0.6,0 1,0.4 1,1 v 2 c 0,0.6 -0.4,1 -1,1 z"
         id="path36" />
      <path
         d="m 29,41 h -3 c -0.6,0 -1,-0.4 -1,-1 v -2 c 0,-0.6 0.4,-1 1,-1 h 3 c 0.6,0 1,0.4 1,1 v 2 c 0,0.6 -0.4,1 -1,1 z"
         id="path38" />
    </g>
    <g
       fill="#bdbdbd"
       id="g48">
      <path
         d="m 36,29 h -3 c -0.6,0 -1,-0.4 -1,-1 v -2 c 0,-0.6 0.4,-1 1,-1 h 3 c 0.6,0 1,0.4 1,1 v 2 c 0,0.6 -0.4,1 -1,1 z"
         id="path42" />
      <path
         d="m 36,35 h -3 c -0.6,0 -1,-0.4 -1,-1 v -2 c 0,-0.6 0.4,-1 1,-1 h 3 c 0.6,0 1,0.4 1,1 v 2 c 0,0.6 -0.4,1 -1,1 z"
         id="path44" />
      <path
         d="m 36,41 h -3 c -0.6,0 -1,-0.4 -1,-1 v -2 c 0,-0.6 0.4,-1 1,-1 h 3 c 0.6,0 1,0.4 1,1 v 2 c 0,0.6 -0.4,1 -1,1 z"
         id="path46" />
    </g>
  </g>
</svg>
