<?xml version="1.0" encoding="UTF-8" standalone="no"?>
<svg
   width="620"
   height="620"
   version="1.0"
   viewBox="0 0 62 62"
   id="svg29"
   sodipodi:docname="poubelle.svg"
   inkscape:version="1.1.2 (0a00cf5339, 2022-02-04)"
   xmlns:inkscape="http://www.inkscape.org/namespaces/inkscape"
   xmlns:sodipodi="http://sodipodi.sourceforge.net/DTD/sodipodi-0.dtd"
   xmlns:xlink="http://www.w3.org/1999/xlink"
   xmlns="http://www.w3.org/2000/svg"
   xmlns:svg="http://www.w3.org/2000/svg">
  <sodipodi:namedview
     id="namedview31"
     pagecolor="#ffffff"
     bordercolor="#666666"
     borderopacity="1.0"
     inkscape:showpageshadow="2"
     inkscape:pageopacity="0.0"
     inkscape:pagecheckerboard="0"
     inkscape:deskcolor="#d1d1d1"
     showgrid="false"
     inkscape:zoom="0.49896648"
     inkscape:cx="251.5199"
     inkscape:cy="561.15994"
     inkscape:window-width="1920"
     inkscape:window-height="1043"
     inkscape:window-x="0"
     inkscape:window-y="0"
     inkscape:window-maximized="1"
     inkscape:current-layer="svg29"
     inkscape:pageshadow="2" />
  <defs
     id="defs19">
    <linearGradient
       id="a"
       x1="42.986301"
       x2="22.0144"
       y1="7.0127001"
       y2="51.987099"
       gradientUnits="userSpaceOnUse">
      <stop
         offset="0"
         stop-color="#ffafaf"
         id="stop2" />
      <stop
         offset="1"
         stop-color="#e31313"
         id="stop4" />
    </linearGradient>
    <linearGradient
       xlink:href="#a"
       id="c"
       x1="54.509937"
       x2="9.5471001"
       y1="41.179295"
       y2="16.248501"
       gradientUnits="userSpaceOnUse">
      <stop
         offset="0"
         stop-color="#9a1212"
         id="stop7" />
      <stop
         offset="1"
         stop-color="#d33e3e"
         id="stop9" />
    </linearGradient>
    <radialGradient
       id="b">
      <stop
         offset="0"
         stop-color="silver"
         id="stop12" />
      <stop
         offset=".88"
         stop-color="silver"
         id="stop14" />
      <stop
         offset="1"
         stop-color="silver"
         stop-opacity="0"
         id="stop16" />
    </radialGradient>
  </defs>
  <circle
     cx="31"
     cy="31"
     r="25.8"
     fill="url(#a)"
     stroke="url(#c)"
     stroke-width="2"
     id="circle23" />
  <path
     style="fill:#ffffff;stroke-width:0.0759189;fill-opacity:1"
     d="m 21.760916,50.331047 c -0.666631,-0.181174 -1.198922,-0.649506 -1.466751,-1.290511 -0.09255,-0.2215 -0.326389,-3.195059 -1.026564,-13.053962 -0.498693,-7.021918 -0.907025,-12.775664 -0.907405,-12.786103 -3.79e-4,-0.01044 5.687832,-0.01898 12.640469,-0.01898 h 12.641158 l -0.04208,0.398574 c -0.02315,0.219216 -0.433729,5.950143 -0.91241,12.735394 -0.478681,6.78525 -0.909107,12.456391 -0.956503,12.602535 -0.188604,0.581559 -0.691507,1.109052 -1.316886,1.381277 -0.332113,0.144567 -18.126472,0.174881 -18.653027,0.03178 z m 3.885023,-3.826395 c 0.105368,-0.07686 0.249733,-0.257107 0.320811,-0.400556 0.123715,-0.249683 0.106841,-0.646491 -0.395286,-9.295164 -0.288485,-4.968891 -0.544138,-9.14277 -0.568118,-9.275285 -0.05191,-0.286836 -0.45997,-0.671746 -0.7887,-0.743948 -0.361571,-0.07941 -0.862753,0.17861 -1.029509,0.530021 -0.133046,0.280374 -0.124069,0.494265 0.397164,9.462339 0.589953,10.150448 0.519773,9.513917 1.081057,9.805062 0.308226,0.159881 0.694813,0.127434 0.982582,-0.08247 z m 5.734433,0.102385 c 0.143888,-0.06012 0.330563,-0.222398 0.414832,-0.360615 0.151465,-0.248433 0.153216,-0.357153 0.153216,-9.513409 0,-9.156256 -0.0017,-9.264977 -0.153216,-9.51341 -0.466375,-0.764946 -1.6479,-0.468917 -1.77881,0.445679 -0.02653,0.185382 -0.03814,4.391478 -0.02579,9.346879 0.02237,8.975751 0.02305,9.010629 0.179688,9.224144 0.168585,0.229797 0.592067,0.479731 0.813171,0.479924 0.07442,6.4e-5 0.253023,-0.04907 0.396911,-0.109192 z m 6.070484,-0.08599 c 0.109896,-0.07201 0.248548,-0.225171 0.308118,-0.340366 0.08209,-0.158745 0.237394,-2.428722 0.641571,-9.377499 0.516081,-8.872625 0.528979,-9.176659 0.400264,-9.435061 -0.190995,-0.383434 -0.496189,-0.581894 -0.882046,-0.573573 -0.37575,0.0081 -0.694226,0.194517 -0.85132,0.498303 -0.08711,0.168461 -0.230994,2.248665 -0.643781,9.30777 -0.292375,4.999953 -0.513029,9.195871 -0.490338,9.324262 0.04492,0.254157 0.346136,0.584814 0.646716,0.709917 0.24381,0.101476 0.616669,0.05277 0.870816,-0.113753 z M 17.144805,20.600249 v -1.36654 h 0.644788 0.644788 l 0.664812,-0.667775 c 0.763503,-0.766904 1.311469,-1.147467 2.486866,-1.72713 1.260002,-0.621386 2.827311,-1.10301 4.939777,-1.51796 0.132476,-0.02603 0.170882,-0.122689 0.246825,-0.621239 0.247735,-1.626351 1.467882,-2.833741 3.098328,-3.065935 0.858804,-0.122303 2.37779,-0.04194 2.944937,0.155806 1.118561,0.390003 1.957274,1.256435 2.277208,2.352467 0.0662,0.226795 0.120889,0.534266 0.121528,0.68327 6.08e-4,0.149005 0.0291,0.314948 0.06324,0.368763 0.03414,0.05382 0.474294,0.181485 0.978113,0.283709 3.102619,0.629513 5.804182,1.947372 6.897878,3.364879 l 0.296804,0.384678 0.702249,0.0033 0.70225,0.0033 v 1.36654 1.36654 H 31 17.144803 v -1.36654 z m 16.126437,-5.807795 c -0.101504,-0.481506 -0.487265,-0.93754 -0.960237,-1.13516 -0.433784,-0.181246 -2.26809,-0.16314 -2.677544,0.02643 -0.372122,0.172287 -0.674729,0.485262 -0.83108,0.859555 -0.211168,0.505521 -0.343017,0.476932 2.199485,0.476932 h 2.317389 z"
     id="path937" />
</svg>
